<?xml version="1.0" encoding="UTF-8"?>
<svg id="Ebene_2" data-name="Ebene 2" xmlns="http://www.w3.org/2000/svg" xmlns:xlink="http://www.w3.org/1999/xlink" viewBox="0 0 521.07 263.29">
  <defs>
    <style>
      .cls-1 {
        fill: url(#Unbenannter_Verlauf_491);
      }
    </style>
    <linearGradient id="Unbenannter_Verlauf_491" data-name="Unbenannter Verlauf 491" x1="352.84" y1="233.83" x2="474.53" y2="38.77" gradientUnits="userSpaceOnUse">
      <stop offset="0" stop-color="#3f3f70"/>
      <stop offset=".65" stop-color="#ce0a71"/>
      <stop offset="1" stop-color="#eb816a"/>
    </linearGradient>
  </defs>
  <g id="Ebene_1-2" data-name="Ebene 1">
    <g>
      <path d="M63.91,92.72v10.58c-2.68-3.55-6.04-6.4-10.08-8.54-4.64-2.46-9.91-3.69-15.81-3.69-7.21,0-13.68,1.8-19.42,5.41-5.74,3.6-10.27,8.47-13.6,14.58-3.33,6.12-5,13-5,20.65s1.66,14.53,5,20.65c3.33,6.12,7.89,10.95,13.68,14.5,5.79,3.55,12.23,5.33,19.34,5.33,6.01,0,11.33-1.23,15.98-3.69,3.99-2.11,7.29-4.94,9.91-8.47v10.52h14.91v-77.84h-14.91ZM58.17,150.82c-4.48,4.97-10.38,7.46-17.7,7.46-4.92,0-9.29-1.15-13.11-3.44-3.83-2.29-6.8-5.43-8.93-9.42-2.13-3.99-3.2-8.6-3.2-13.85s1.06-9.69,3.2-13.68c2.13-3.99,5.08-7.13,8.85-9.42,3.77-2.29,8.11-3.44,13.03-3.44s9.23,1.12,12.95,3.36c3.71,2.24,6.58,5.35,8.6,9.34,2.02,3.99,3.03,8.66,3.03,14.01,0,7.76-2.24,14.12-6.72,19.09Z"/>
      <path d="M160.26,107.06c-2.62-4.75-6.2-8.6-10.73-11.55-4.53-2.95-9.75-4.42-15.65-4.42s-11.2,1.34-15.9,4.01c-3.54,2.02-6.49,4.58-8.85,7.68v-10.05h-14.75v77.84h14.75v-45.39c0-3.93.87-7.43,2.62-10.49,1.75-3.06,4.15-5.46,7.21-7.21,3.06-1.75,6.55-2.62,10.49-2.62,5.9,0,10.71,1.91,14.42,5.74,3.71,3.83,5.57,8.69,5.57,14.58v45.39h14.75v-48.34c0-5.35-1.31-10.41-3.93-15.16Z"/>
      <path d="M178.45,170.56v-77.84h14.75v77.84h-14.75Z"/>
      <polygon points="266.48 92.72 242.4 147.58 218.46 92.72 202.08 92.72 237.8 170.56 246.49 170.56 282.21 92.72 266.48 92.72"/>
      <path d="M291,170.56v-77.84h14.7v77.84h-14.7Z"/>
      <path d="M346.48,172.2c-4.37,0-8.5-.57-12.37-1.72-3.88-1.15-7.46-2.79-10.73-4.92s-6.12-4.67-8.52-7.62l9.5-9.5c2.84,3.5,6.12,6.09,9.83,7.78,3.71,1.7,7.87,2.54,12.45,2.54s8.14-.79,10.65-2.38c2.51-1.58,3.77-3.79,3.77-6.64s-1.01-5.05-3.03-6.64c-2.02-1.58-4.62-2.89-7.78-3.93-3.17-1.04-6.53-2.07-10.08-3.11-3.55-1.04-6.91-2.38-10.08-4.01-3.17-1.64-5.76-3.88-7.78-6.72-2.02-2.84-3.03-6.61-3.03-11.31s1.15-8.77,3.44-12.21c2.29-3.44,5.49-6.09,9.59-7.95,4.1-1.86,9.04-2.79,14.83-2.79,6.12,0,11.55,1.06,16.3,3.2s8.66,5.33,11.72,9.59l-9.5,9.5c-2.19-2.84-4.89-5.02-8.11-6.55-3.22-1.53-6.86-2.29-10.9-2.29-4.26,0-7.51.74-9.75,2.21-2.24,1.47-3.36,3.52-3.36,6.15s.98,4.64,2.95,6.06c1.97,1.42,4.56,2.62,7.78,3.61,3.22.98,6.58,1.99,10.08,3.03,3.5,1.04,6.83,2.43,10,4.18,3.17,1.75,5.76,4.1,7.78,7.05,2.02,2.95,3.03,6.83,3.03,11.63,0,7.32-2.6,13.11-7.78,17.37-5.19,4.26-12.15,6.39-20.89,6.39Z"/>
      <path d="M452.91,109.6c-3.11-5.79-7.43-10.32-12.95-13.6-5.52-3.28-11.88-4.92-19.09-4.92s-14.34,1.78-20.4,5.33c-6.06,3.55-10.87,8.39-14.42,14.5-3.55,6.12-5.33,13-5.33,20.65s1.8,14.69,5.41,20.81c3.61,6.12,8.52,10.95,14.75,14.5,6.23,3.55,13.22,5.33,20.97,5.33,6.12,0,11.88-1.15,17.29-3.44,5.41-2.29,9.97-5.62,13.68-10l-9.5-9.67c-2.62,3.06-5.76,5.35-9.42,6.88-3.66,1.53-7.68,2.29-12.04,2.29-5.24,0-9.89-1.12-13.93-3.36-4.04-2.24-7.16-5.41-9.34-9.5-1.34-2.5-2.26-5.26-2.78-8.28h60.95c.33-1.64.54-3.09.66-4.34.11-1.25.16-2.43.16-3.52,0-7.32-1.56-13.87-4.67-19.66ZM407.27,107.96c3.82-2.18,8.25-3.28,13.27-3.28s8.9,1.01,12.29,3.03c3.38,2.02,6.01,4.86,7.87,8.52,1.27,2.5,2.09,5.37,2.49,8.6h-47.35c.5-2.81,1.36-5.38,2.58-7.7,2.07-3.93,5.02-6.99,8.85-9.18Z"/>
      <path class="cls-1" d="M406.28,263.29c-1.35,0-2.83-.44-4.26-1.28l-107.23-61.94c-2.5-1.44-3.8-3.97-3.66-7.12l-.03-16.85h14.54s.02,13.59.02,13.59l34.26,19.73,66.15,38.17,36.09-20.8,40.93,16.2-11.02-33.47,34.48-19.88-.05-116.06-100.41-57.94-100.44,57.97v12.5s-14.54,0-14.54,0v-16.15c-.19-3.05,1.24-5.42,4.23-7.15L402.13,1.11c1.28-.74,2.59-1.11,3.9-1.11s2.73.4,4.09,1.19l107.01,61.82c2.57,1.49,3.93,3.83,3.93,6.79v124.64s0,.09,0,.09c-.52,2.66-1.42,4.25-2.87,5.08l-26.56,15.37,9.7,44.37c.23,1.05-.06,2.29-.69,2.94l-.06.06-.12.1c-.54.4-1.55.77-2.41.77-.14,0-.43,0-.75-.12l-55.4-19.4-32.71,18.81c-.88.51-1.86.77-2.9.77Z"/>
    </g>
  </g>
</svg>